<?xml version="1.0" encoding="UTF-8"?>
<svg xmlns="http://www.w3.org/2000/svg" xmlns:xlink="http://www.w3.org/1999/xlink" width="150pt" height="150pt" viewBox="0 0 150 150" version="1.1">
<g id="surface1">
<path style=" stroke:none;fill-rule:nonzero;fill:rgb(29.803922%,68.627451%,31.372549%);fill-opacity:1;" d="M 55.8125 11.703125 C 55.8125 11.777344 55.621094 11.878906 55.386719 11.9375 C 54.875 12.054688 54.433594 12.507812 54.183594 13.210938 C 53.9375 13.914062 54.171875 14.941406 54.785156 15.90625 C 55.019531 16.289062 55.226562 16.671875 55.226562 16.742188 C 55.226562 16.917969 56.308594 18.457031 56.910156 19.117188 C 57.804688 20.097656 59.648438 22.367188 60.425781 23.4375 C 60.835938 23.992188 61.40625 24.726562 61.714844 25.078125 C 62.023438 25.429688 62.476562 26.046875 62.738281 26.46875 C 63.003906 26.894531 63.707031 27.875 64.320312 28.679688 C 64.9375 29.472656 65.507812 30.265625 65.59375 30.425781 C 65.683594 30.585938 66.226562 31.304688 66.78125 32.023438 C 67.351562 32.738281 67.820312 33.414062 67.820312 33.515625 C 67.820312 33.808594 68.277344 34.421875 68.480469 34.421875 C 68.585938 34.421875 68.773438 34.703125 68.90625 35.023438 C 69.039062 35.359375 69.417969 35.933594 69.726562 36.3125 C 70.046875 36.695312 70.3125 37.0625 70.3125 37.132812 C 70.3125 37.191406 70.589844 37.617188 70.941406 38.070312 C 71.28125 38.523438 71.632812 39.023438 71.71875 39.183594 C 72.453125 40.53125 72.757812 41.046875 73.226562 41.675781 C 73.519531 42.070312 73.976562 42.742188 74.222656 43.15625 C 74.472656 43.5625 74.941406 44.238281 75.265625 44.679688 C 75.585938 45.101562 76.039062 45.820312 76.257812 46.273438 C 76.480469 46.726562 77.023438 47.609375 77.445312 48.222656 C 77.871094 48.851562 78.28125 49.511719 78.355469 49.703125 C 78.429688 49.890625 78.882812 50.566406 79.367188 51.210938 C 79.863281 51.855469 80.304688 52.574219 80.359375 52.820312 C 80.421875 53.054688 80.539062 53.351562 80.65625 53.46875 C 80.757812 53.585938 81.050781 54.066406 81.328125 54.523438 C 81.59375 54.976562 82.191406 55.914062 82.660156 56.601562 C 83.128906 57.289062 83.539062 57.964844 83.585938 58.082031 C 83.640625 58.199219 83.863281 58.507812 84.097656 58.753906 C 84.332031 59.003906 84.523438 59.296875 84.523438 59.398438 C 84.523438 59.5 84.640625 59.734375 84.785156 59.925781 C 84.945312 60.117188 85.269531 60.671875 85.53125 61.140625 C 85.796875 61.625 86.148438 62.195312 86.324219 62.417969 C 86.777344 62.972656 87.742188 64.539062 87.742188 64.71875 C 87.742188 64.789062 88.09375 65.332031 88.519531 65.933594 C 88.929688 66.53125 89.546875 67.441406 89.851562 67.96875 C 90.175781 68.496094 90.628906 69.183594 90.894531 69.507812 C 91.140625 69.828125 91.640625 70.578125 91.992188 71.175781 C 92.828125 72.613281 94.484375 74.96875 95.054688 75.5 C 95.304688 75.746094 95.507812 76.011719 95.507812 76.097656 C 95.507812 76.625 97.074219 77.492188 98.042969 77.492188 L 98.480469 77.492188 L 98.378906 76.347656 C 98.261719 75.175781 97.765625 73.402344 97.265625 72.496094 C 97.105469 72.203125 96.972656 71.835938 96.972656 71.675781 C 96.972656 71.527344 96.914062 71.335938 96.839844 71.265625 C 96.765625 71.175781 96.402344 70.296875 96.007812 69.289062 C 95.625 68.277344 95.171875 67.222656 94.996094 66.945312 C 94.453125 66.0625 93.472656 64.117188 93.25 63.457031 C 93.121094 63.105469 92.898438 62.652344 92.753906 62.429688 C 92.59375 62.210938 92.09375 61.273438 91.640625 60.351562 C 90.761719 58.578125 90.058594 57.320312 88.726562 55.136719 C 88.273438 54.40625 87.789062 53.523438 87.65625 53.160156 C 87.507812 52.808594 87.085938 52.03125 86.6875 51.445312 C 86.292969 50.859375 85.738281 49.878906 85.460938 49.25 C 85.164062 48.632812 84.683594 47.78125 84.390625 47.386719 C 83.773438 46.554688 82.46875 44.296875 82.46875 44.03125 C 82.46875 43.945312 82.265625 43.667969 82.03125 43.402344 C 81.78125 43.140625 81.59375 42.859375 81.59375 42.789062 C 81.59375 42.699219 81.53125 42.625 81.445312 42.625 C 81.371094 42.625 81.296875 42.554688 81.296875 42.480469 C 81.296875 42.390625 81.125 42.054688 80.902344 41.703125 C 80.667969 41.367188 80.390625 40.882812 80.273438 40.648438 C 79.890625 39.886719 79.21875 38.921875 78.574219 38.171875 C 78.238281 37.792969 77.929688 37.296875 77.886719 37.074219 C 77.84375 36.871094 77.492188 36.285156 77.09375 35.785156 C 76.714844 35.289062 76.203125 34.570312 75.953125 34.175781 C 75.71875 33.792969 75.21875 33.078125 74.851562 32.59375 C 74.003906 31.492188 73.242188 30.335938 73.242188 30.191406 C 73.242188 30.132812 73.082031 29.941406 72.875 29.765625 C 72.6875 29.589844 72.421875 29.238281 72.320312 28.976562 C 72.128906 28.519531 69.859375 25.398438 67.910156 22.894531 C 67.457031 22.324219 67.089844 21.796875 67.089844 21.710938 C 67.089844 21.636719 66.765625 21.210938 66.359375 20.785156 C 65.960938 20.359375 65.625 19.964844 65.625 19.90625 C 65.625 19.453125 60.410156 14.136719 58.960938 13.109375 C 58.007812 12.421875 56.851562 11.867188 56.382812 11.867188 C 56.234375 11.867188 56.101562 11.792969 56.101562 11.71875 C 56.101562 11.632812 56.046875 11.570312 55.957031 11.570312 C 55.882812 11.570312 55.8125 11.632812 55.8125 11.703125 Z M 55.8125 11.703125 "/>
<path style=" stroke:none;fill-rule:nonzero;fill:rgb(29.803922%,68.627451%,31.372549%);fill-opacity:1;" d="M 51.371094 30.21875 C 51.035156 30.484375 50.945312 30.6875 50.890625 31.347656 C 50.800781 32.285156 51.210938 33.75 51.765625 34.484375 C 51.957031 34.730469 52.207031 35.125 52.339844 35.375 C 52.457031 35.609375 52.765625 36.035156 53.011719 36.3125 C 53.261719 36.59375 53.46875 36.914062 53.46875 37.015625 C 53.46875 37.117188 53.539062 37.207031 53.613281 37.207031 C 53.703125 37.207031 53.757812 37.296875 53.757812 37.414062 C 53.757812 37.515625 53.9375 37.734375 54.171875 37.867188 C 54.390625 38.011719 55.121094 38.703125 55.8125 39.390625 C 57.480469 41.074219 58.945312 42.335938 59.222656 42.335938 C 59.355469 42.335938 59.5625 42.523438 59.679688 42.757812 C 59.796875 42.976562 60.058594 43.273438 60.25 43.402344 C 60.4375 43.519531 60.789062 43.828125 61.023438 44.09375 C 61.257812 44.339844 61.699219 44.679688 61.992188 44.839844 C 62.300781 44.984375 62.636719 45.308594 62.769531 45.542969 C 62.886719 45.777344 63.429688 46.257812 63.96875 46.625 C 64.527344 46.992188 65.097656 47.445312 65.257812 47.636719 C 65.421875 47.828125 65.785156 48.148438 66.0625 48.339844 C 66.34375 48.53125 66.882812 48.96875 67.265625 49.320312 C 67.648438 49.671875 68.128906 50.023438 68.335938 50.125 C 68.539062 50.214844 68.703125 50.347656 68.703125 50.421875 C 68.703125 50.476562 68.789062 50.539062 68.890625 50.539062 C 68.980469 50.539062 69.273438 50.742188 69.507812 50.992188 C 69.757812 51.242188 70.152344 51.519531 70.386719 51.621094 C 70.632812 51.722656 71.28125 52.164062 71.835938 52.585938 C 74.925781 54.917969 78.222656 55.253906 78.222656 53.234375 C 78.222656 52.574219 77.59375 51.195312 76.992188 50.539062 C 76.800781 50.332031 76.523438 49.9375 76.375 49.65625 C 76.230469 49.378906 75.703125 48.75 75.21875 48.265625 C 74.734375 47.796875 74.238281 47.257812 74.121094 47.078125 C 73.667969 46.40625 70.445312 43.242188 69.007812 42.039062 C 68.773438 41.835938 67.691406 40.882812 66.621094 39.917969 C 65.550781 38.949219 64.378906 37.910156 64.015625 37.617188 C 63.648438 37.324219 63.0625 36.8125 62.695312 36.476562 C 62.328125 36.152344 61.566406 35.507812 60.980469 35.082031 C 60.410156 34.644531 59.914062 34.234375 59.882812 34.175781 C 59.808594 34 57.554688 32.300781 57.054688 32.035156 C 56.820312 31.917969 56.324219 31.539062 55.957031 31.214844 C 54.609375 30 52.28125 29.488281 51.371094 30.21875 Z M 51.371094 30.21875 "/>
<path style=" stroke:none;fill-rule:nonzero;fill:rgb(29.803922%,68.627451%,31.372549%);fill-opacity:1;" d="M 49.085938 43.902344 C 48.808594 44.046875 48.53125 44.265625 48.484375 44.382812 C 48.429688 44.5 48.3125 44.75 48.222656 44.925781 C 48.003906 45.335938 47.988281 46.539062 48.195312 46.65625 C 48.28125 46.699219 48.339844 46.875 48.339844 47.035156 C 48.339844 47.546875 50.375 50.390625 50.757812 50.390625 C 50.859375 50.390625 51.09375 50.625 51.285156 50.890625 C 51.476562 51.167969 51.898438 51.5625 52.222656 51.78125 C 52.542969 51.988281 53.128906 52.441406 53.523438 52.808594 C 53.90625 53.171875 54.273438 53.46875 54.300781 53.46875 C 54.34375 53.46875 54.578125 53.640625 54.84375 53.847656 C 55.371094 54.289062 56.5 55.0625 57.390625 55.632812 C 57.742188 55.855469 58.375 56.28125 58.785156 56.570312 C 59.195312 56.878906 59.617188 57.128906 59.722656 57.128906 C 59.824219 57.128906 59.914062 57.1875 59.914062 57.273438 C 59.914062 57.347656 60 57.421875 60.117188 57.421875 C 60.234375 57.421875 60.351562 57.507812 60.394531 57.613281 C 60.4375 57.730469 60.980469 58.082031 61.625 58.402344 C 62.257812 58.710938 63.0625 59.164062 63.414062 59.382812 C 63.765625 59.605469 64.320312 59.914062 64.65625 60.058594 C 64.980469 60.21875 65.421875 60.4375 65.625 60.554688 C 65.828125 60.671875 66.09375 60.804688 66.210938 60.851562 C 66.328125 60.90625 66.664062 61.085938 66.945312 61.257812 C 67.71875 61.726562 69.640625 62.695312 69.8125 62.695312 C 69.886719 62.695312 70.707031 63.003906 71.617188 63.367188 C 72.523438 63.734375 73.625 64.070312 74.0625 64.117188 C 74.5 64.160156 74.898438 64.261719 74.941406 64.320312 C 74.984375 64.394531 75.308594 64.453125 75.671875 64.453125 C 76.492188 64.453125 77.535156 63.867188 77.402344 63.472656 C 77.035156 62.417969 75.71875 60.351562 75.410156 60.351562 C 75.335938 60.351562 74.984375 60.03125 74.589844 59.648438 C 74.210938 59.253906 73.476562 58.578125 72.949219 58.15625 C 72.421875 57.714844 71.96875 57.335938 71.921875 57.273438 C 71.71875 57.054688 70.164062 55.957031 70.035156 55.957031 C 69.960938 55.957031 69.59375 55.738281 69.242188 55.460938 C 68.875 55.179688 68.363281 54.84375 68.117188 54.710938 C 67.5 54.390625 65.890625 53.289062 64.964844 52.558594 C 64.570312 52.234375 64.058594 51.945312 63.835938 51.898438 C 63.617188 51.855469 63.0625 51.503906 62.621094 51.109375 C 62.167969 50.710938 61.742188 50.390625 61.671875 50.390625 C 61.597656 50.390625 61.203125 50.070312 60.761719 49.6875 C 60.335938 49.304688 59.648438 48.765625 59.222656 48.515625 C 58.8125 48.25 58.390625 47.929688 58.285156 47.796875 C 58.183594 47.679688 57.554688 47.210938 56.878906 46.789062 C 56.21875 46.347656 55.621094 45.894531 55.5625 45.789062 C 55.488281 45.6875 54.652344 45.191406 53.6875 44.679688 C 52.046875 43.828125 51.839844 43.769531 50.757812 43.695312 C 49.804688 43.652344 49.484375 43.679688 49.085938 43.902344 Z M 49.085938 43.902344 "/>
<path style=" stroke:none;fill-rule:nonzero;fill:rgb(29.803922%,68.627451%,31.372549%);fill-opacity:1;" d="M 45.160156 55.121094 C 44.914062 55.226562 44.382812 55.648438 44.003906 56.089844 C 43.375 56.792969 43.300781 56.9375 43.316406 57.554688 C 43.316406 58.039062 43.492188 58.5625 43.902344 59.398438 C 44.222656 60.042969 44.605469 60.820312 44.75 61.128906 C 44.898438 61.4375 45.277344 61.992188 45.628906 62.375 C 45.96875 62.753906 46.480469 63.441406 46.789062 63.898438 C 47.09375 64.367188 47.402344 64.746094 47.476562 64.746094 C 47.546875 64.746094 47.972656 65.15625 48.441406 65.65625 C 49.980469 67.308594 52.132812 69.34375 54.054688 70.941406 C 54.492188 71.324219 54.929688 71.703125 55.019531 71.804688 C 55.109375 71.910156 55.867188 72.582031 56.6875 73.316406 C 57.523438 74.03125 58.578125 74.96875 59.019531 75.382812 C 59.707031 75.996094 61.203125 77.226562 62.460938 78.222656 C 62.621094 78.339844 62.988281 78.675781 63.28125 78.96875 C 63.574219 79.261719 63.984375 79.554688 64.175781 79.613281 C 64.367188 79.671875 64.863281 80.070312 65.257812 80.492188 C 65.667969 80.917969 66.253906 81.414062 66.578125 81.59375 C 66.898438 81.78125 67.53125 82.265625 68 82.675781 C 68.453125 83.085938 69.171875 83.6875 69.578125 84.007812 C 70.003906 84.332031 70.914062 85.035156 71.617188 85.589844 C 72.304688 86.132812 73.167969 86.792969 73.519531 87.054688 C 73.886719 87.304688 74.488281 87.789062 74.882812 88.109375 C 76.171875 89.195312 76.539062 89.445312 77.359375 89.914062 C 77.796875 90.160156 78.296875 90.511719 78.457031 90.6875 C 78.734375 91.011719 81.179688 92.886719 81.929688 93.355469 C 82.164062 93.5 82.425781 93.675781 82.515625 93.75 C 84.007812 94.9375 84.535156 95.332031 84.960938 95.523438 C 85.238281 95.65625 85.839844 96.09375 86.292969 96.476562 C 87.453125 97.484375 88.15625 98.042969 88.609375 98.277344 C 88.8125 98.394531 89.382812 98.789062 89.867188 99.171875 C 90.351562 99.550781 91.085938 100.035156 91.480469 100.269531 C 91.890625 100.488281 92.3125 100.75 92.445312 100.867188 C 92.5625 100.984375 92.726562 101.074219 92.796875 101.074219 C 92.855469 101.074219 93.222656 101.265625 93.589844 101.5 C 93.953125 101.734375 94.527344 101.996094 94.847656 102.101562 C 95.171875 102.203125 95.492188 102.335938 95.582031 102.40625 C 95.773438 102.582031 96.242188 102.570312 96.242188 102.390625 C 96.242188 101.617188 93.734375 98.832031 90 95.433594 C 89.296875 94.789062 88.34375 93.898438 87.890625 93.457031 C 85.371094 91.023438 82.457031 88.300781 81.882812 87.847656 C 81.035156 87.1875 80.742188 86.894531 80.199219 86.21875 C 79.964844 85.929688 79.554688 85.578125 79.277344 85.445312 C 79.015625 85.3125 78.601562 84.929688 78.355469 84.578125 C 78.121094 84.226562 77.710938 83.832031 77.460938 83.703125 C 77.226562 83.570312 76.714844 83.160156 76.332031 82.792969 C 75.953125 82.414062 75.101562 81.605469 74.429688 81.007812 C 73.769531 80.40625 72.6875 79.394531 72.027344 78.78125 C 71.367188 78.148438 70.648438 77.535156 70.460938 77.386719 C 70.253906 77.257812 69.828125 76.90625 69.507812 76.597656 C 68.964844 76.097656 67.585938 74.882812 66.476562 73.929688 C 65.449219 73.050781 63.898438 71.6875 63.015625 70.882812 C 62.503906 70.414062 61.890625 69.945312 61.65625 69.84375 C 61.421875 69.742188 61.128906 69.449219 61.011719 69.183594 C 60.878906 68.921875 60.644531 68.613281 60.46875 68.496094 C 60.292969 68.363281 60.191406 68.234375 60.234375 68.171875 C 60.292969 68.128906 60.878906 68.378906 61.554688 68.746094 C 63.339844 69.710938 63.867188 69.976562 64.601562 70.238281 C 64.964844 70.371094 65.59375 70.632812 65.992188 70.839844 C 67.339844 71.484375 70.632812 72.789062 71.410156 72.964844 C 71.734375 73.039062 72.289062 73.242188 72.65625 73.417969 C 73.636719 73.871094 75.660156 73.859375 76.304688 73.402344 C 76.554688 73.226562 76.757812 72.949219 76.757812 72.789062 C 76.757812 72.144531 76.15625 71.324219 75.148438 70.589844 C 74.589844 70.179688 74.078125 69.769531 74.019531 69.652344 C 73.886719 69.433594 71.984375 68.117188 71.792969 68.117188 C 71.71875 68.117188 71.324219 67.882812 70.914062 67.601562 C 70.503906 67.324219 70.136719 67.089844 70.078125 67.089844 C 70.035156 67.089844 69.652344 66.871094 69.242188 66.59375 C 68.820312 66.3125 67.851562 65.773438 67.089844 65.359375 C 66.328125 64.964844 65.242188 64.394531 64.671875 64.085938 C 62.269531 62.796875 61.789062 62.546875 61.609375 62.546875 C 61.507812 62.546875 61.070312 62.285156 60.644531 61.960938 C 60.21875 61.640625 59.765625 61.375 59.632812 61.375 C 59.515625 61.375 59.3125 61.289062 59.195312 61.171875 C 59.0625 61.054688 58.445312 60.6875 57.804688 60.367188 C 57.171875 60.03125 56.441406 59.589844 56.175781 59.398438 C 55.929688 59.195312 55.664062 59.03125 55.605469 59.03125 C 55.398438 59.03125 53.1875 57.921875 52.296875 57.347656 C 51.765625 57.027344 51.050781 56.632812 50.683594 56.484375 C 50.316406 56.335938 49.890625 56.164062 49.730469 56.089844 C 47.402344 55.109375 45.996094 54.800781 45.160156 55.121094 Z M 45.160156 55.121094 "/>
<path style=" stroke:none;fill-rule:nonzero;fill:rgb(29.803922%,68.627451%,31.372549%);fill-opacity:1;" d="M 118.066406 66.488281 C 117.949219 66.5625 117.347656 66.765625 116.75 66.945312 C 116.148438 67.117188 115.226562 67.425781 114.695312 67.632812 C 113.378906 68.144531 110.667969 69.535156 110.433594 69.8125 C 110.332031 69.929688 110.007812 70.164062 109.730469 70.3125 C 109.4375 70.472656 108.867188 70.914062 108.441406 71.292969 C 108.03125 71.675781 107.609375 72.070312 107.492188 72.15625 C 107.035156 72.539062 105.789062 73.929688 105.527344 74.339844 C 105.382812 74.574219 105.21875 74.808594 105.175781 74.851562 C 104.914062 75.101562 104.296875 76.214844 104.296875 76.449219 C 104.296875 76.597656 104.195312 76.800781 104.078125 76.90625 C 103.84375 77.09375 103.785156 77.34375 103.976562 77.34375 C 104.09375 77.34375 105.96875 76.171875 106.492188 75.761719 C 106.699219 75.601562 107.226562 75.320312 107.664062 75.132812 C 108.105469 74.957031 108.675781 74.648438 108.910156 74.472656 C 109.160156 74.296875 109.71875 73.988281 110.15625 73.785156 C 110.59375 73.578125 111.53125 73.140625 112.222656 72.816406 C 113.394531 72.273438 115.972656 71.335938 116.324219 71.335938 C 116.398438 71.335938 116.777344 71.191406 117.15625 71.015625 C 117.789062 70.707031 118.066406 70.679688 120.628906 70.679688 L 123.414062 70.679688 L 124.820312 71.367188 C 125.582031 71.761719 126.269531 72.070312 126.328125 72.070312 C 126.386719 72.070312 126.945312 72.464844 127.558594 72.949219 C 128.554688 73.710938 129.667969 74.941406 129.992188 75.585938 C 130.109375 75.851562 130.28125 76.128906 130.972656 77.195312 C 131.46875 77.945312 131.953125 79.351562 132.4375 81.445312 C 132.699219 82.53125 132.699219 86.660156 132.453125 87.890625 C 131.910156 90.542969 131.644531 91.332031 130.867188 92.84375 C 129.667969 95.15625 129.226562 95.945312 128.671875 96.722656 C 128.394531 97.105469 128.171875 97.457031 128.171875 97.5 C 128.171875 97.648438 126.710938 99.609375 125.902344 100.53125 C 124.953125 101.644531 122.945312 103.652344 122.417969 104.03125 C 122.183594 104.195312 121.597656 104.691406 121.097656 105.117188 C 120.601562 105.542969 119.824219 106.097656 119.371094 106.347656 C 118.902344 106.597656 118.507812 106.84375 118.476562 106.90625 C 118.359375 107.167969 115.136719 108.808594 113.789062 109.277344 C 113.289062 109.46875 112.601562 109.746094 112.28125 109.90625 C 111.738281 110.1875 110.785156 110.476562 108.867188 110.960938 C 108.441406 111.0625 108.015625 111.226562 107.914062 111.296875 C 107.664062 111.503906 105.585938 112.015625 103.976562 112.28125 C 103.226562 112.398438 102.246094 112.558594 101.804688 112.648438 C 97.207031 113.46875 89.121094 113.363281 84.960938 112.425781 C 84.433594 112.308594 83.640625 112.179688 83.203125 112.117188 C 82.0625 111.988281 80.609375 111.648438 79.90625 111.34375 C 79.585938 111.195312 78.601562 110.902344 77.710938 110.683594 C 76.140625 110.289062 75.660156 110.171875 73.402344 109.570312 C 72.804688 109.410156 72.171875 109.277344 71.984375 109.277344 C 71.792969 109.277344 71.601562 109.21875 71.558594 109.132812 C 71.441406 108.941406 69.289062 108.941406 69.289062 109.132812 C 69.289062 109.21875 69.125 109.367188 68.921875 109.453125 C 68.714844 109.539062 68.554688 109.703125 68.554688 109.804688 C 68.554688 109.890625 68.46875 110.007812 68.351562 110.054688 C 68.203125 110.113281 68.144531 110.816406 68.070312 113.1875 C 68.027344 114.859375 67.910156 116.734375 67.820312 117.335938 C 67.648438 118.507812 66.945312 120.734375 66.488281 121.582031 C 65.332031 123.675781 64.9375 124.378906 64.773438 124.539062 C 64.671875 124.644531 64.601562 124.804688 64.601562 124.90625 C 64.601562 125.007812 64.496094 125.097656 64.378906 125.097656 C 64.261719 125.097656 64.160156 125.1875 64.160156 125.304688 C 64.160156 125.421875 63.925781 125.773438 63.648438 126.078125 C 63.164062 126.605469 63.03125 126.855469 63.222656 126.855469 C 63.53125 126.855469 65.539062 125.1875 67.046875 123.675781 C 69.066406 121.65625 69.109375 121.566406 70.035156 118.652344 C 70.210938 118.125 70.398438 117.625 70.472656 117.539062 C 70.546875 117.453125 70.664062 116.761719 70.75 116 C 71.015625 113.554688 71.101562 113.171875 71.382812 113.117188 C 71.515625 113.085938 72.054688 113.261719 72.582031 113.511719 C 73.109375 113.757812 73.625 113.964844 73.726562 113.964844 C 73.8125 113.964844 74.574219 114.199219 75.410156 114.476562 C 76.230469 114.757812 77.152344 115.019531 77.460938 115.0625 C 78.148438 115.179688 79.921875 115.695312 80.492188 115.941406 C 80.992188 116.148438 81.945312 116.367188 83.351562 116.601562 C 83.875 116.675781 84.667969 116.804688 85.109375 116.894531 C 86.484375 117.128906 90.921875 117.273438 93.601562 117.15625 C 97.585938 116.996094 100.386719 116.601562 102.320312 115.957031 C 102.890625 115.765625 103.742188 115.503906 104.222656 115.386719 C 106.960938 114.683594 107.695312 114.460938 108.691406 114.082031 C 109.292969 113.847656 110.214844 113.4375 110.742188 113.171875 C 111.269531 112.910156 112.089844 112.542969 112.574219 112.367188 C 114.140625 111.78125 114.535156 111.59375 114.800781 111.296875 C 114.945312 111.136719 115.515625 110.785156 116.089844 110.523438 C 117.480469 109.847656 118.167969 109.421875 118.710938 108.941406 C 118.960938 108.71875 119.429688 108.398438 119.75 108.238281 C 120.058594 108.0625 120.71875 107.59375 121.1875 107.183594 C 122.503906 106.011719 124.644531 103.988281 125.15625 103.433594 C 125.40625 103.15625 125.976562 102.523438 126.414062 102.027344 C 126.855469 101.527344 127.601562 100.707031 128.070312 100.195312 C 128.523438 99.695312 128.90625 99.199219 128.921875 99.109375 C 128.921875 99.023438 129.15625 98.65625 129.417969 98.289062 C 129.695312 97.925781 130.09375 97.351562 130.296875 97.015625 C 130.503906 96.664062 130.824219 96.242188 131.015625 96.050781 C 131.191406 95.859375 131.71875 94.996094 132.15625 94.117188 C 132.597656 93.222656 133.039062 92.375 133.125 92.210938 C 133.492188 91.597656 134.589844 88.945312 134.808594 88.183594 C 135.203125 86.835938 135.394531 84.625 135.320312 82.351562 C 135.277344 81.167969 135.21875 80.097656 135.191406 79.980469 C 135.132812 79.746094 135.570312 79.671875 139.117188 79.410156 C 141.195312 79.25 141.546875 79.1875 144.066406 78.648438 C 146.234375 78.164062 146.675781 78.046875 147.363281 77.738281 C 147.730469 77.578125 148.460938 77.269531 149.003906 77.050781 L 149.984375 76.671875 L 147.027344 76.203125 C 145.398438 75.9375 143.921875 75.734375 143.746094 75.734375 C 143.570312 75.734375 143.40625 75.671875 143.378906 75.585938 C 143.304688 75.382812 137.914062 74.984375 135.71875 75.015625 L 133.8125 75.042969 L 133.519531 74.53125 C 133.359375 74.253906 133.023438 73.769531 132.789062 73.445312 C 132.539062 73.140625 132.15625 72.613281 131.9375 72.273438 C 131.5 71.632812 130.546875 70.648438 129.449219 69.742188 C 128.789062 69.183594 126.855469 67.96875 126.621094 67.96875 C 126.578125 67.96875 126.09375 67.75 125.550781 67.46875 C 125.023438 67.207031 124.144531 66.898438 123.589844 66.796875 C 123.046875 66.695312 122.5625 66.5625 122.519531 66.488281 C 122.417969 66.328125 118.359375 66.328125 118.066406 66.488281 Z M 118.066406 66.488281 "/>
<path style=" stroke:none;fill-rule:nonzero;fill:rgb(29.803922%,68.627451%,31.372549%);fill-opacity:1;" d="M 120.554688 76.390625 C 120.117188 76.464844 119.5 76.683594 119.210938 76.875 C 118.5625 77.285156 117.832031 78.164062 117.699219 78.707031 C 117.640625 78.925781 117.539062 79.144531 117.464844 79.1875 C 117.390625 79.234375 117.335938 79.6875 117.335938 80.199219 C 117.335938 81.269531 117.730469 82.148438 118.636719 83.101562 C 119.445312 83.964844 120.277344 84.300781 121.582031 84.300781 C 122.59375 84.300781 122.753906 84.257812 123.691406 83.714844 C 124.835938 83.054688 125.257812 82.414062 125.566406 80.945312 C 125.816406 79.761719 125.421875 78.367188 124.585938 77.578125 C 123.429688 76.449219 122.167969 76.085938 120.554688 76.390625 Z M 120.554688 76.390625 "/>
<path style=" stroke:none;fill-rule:nonzero;fill:rgb(29.803922%,68.627451%,31.372549%);fill-opacity:1;" d="M 50.976562 103.8125 C 49.175781 104.136719 47.738281 104.488281 47.664062 104.617188 C 47.621094 104.679688 47.375 104.734375 47.109375 104.734375 C 46.84375 104.734375 46.273438 104.839844 45.835938 104.96875 C 45.394531 105.101562 44.679688 105.292969 44.238281 105.394531 C 42.070312 105.90625 39.726562 106.539062 39.34375 106.726562 C 38.4375 107.183594 35.875 107.929688 34.058594 108.25 C 33.664062 108.324219 33.0625 108.484375 32.738281 108.601562 C 32.417969 108.71875 31.890625 108.851562 31.566406 108.910156 C 31.246094 108.96875 30.921875 109.058594 30.835938 109.117188 C 30.617188 109.277344 29.53125 109.570312 29.121094 109.570312 C 28.929688 109.570312 28.242188 109.703125 27.597656 109.878906 C 26.324219 110.214844 25.09375 110.464844 22.574219 110.902344 C 21.648438 111.050781 20.816406 111.253906 20.726562 111.328125 C 20.625 111.414062 20.289062 111.503906 19.980469 111.53125 C 19.65625 111.5625 18.984375 111.664062 18.457031 111.765625 C 17.929688 111.871094 17.375 111.972656 17.210938 111.988281 C 16.203125 112.0625 14.679688 112.25 13.476562 112.441406 C 12.128906 112.648438 10.238281 112.882812 7.03125 113.234375 C 6.179688 113.335938 5.359375 113.46875 5.199219 113.523438 C 4.878906 113.671875 3.78125 113.90625 2.78125 114.054688 C 2.023438 114.171875 0.777344 114.726562 0.308594 115.152344 C 0.0859375 115.355469 0 115.621094 0 116.03125 C 0 116.6875 0.410156 117.1875 1.214844 117.480469 C 1.464844 117.570312 1.949219 117.773438 2.269531 117.921875 C 3.105469 118.316406 4.789062 118.507812 7.441406 118.507812 C 10.0625 118.507812 12.671875 118.300781 14.0625 118.007812 C 14.589844 117.890625 15.570312 117.714844 16.257812 117.625 C 17.535156 117.464844 19.117188 117.203125 21.460938 116.804688 C 22.9375 116.542969 24.785156 116.074219 25.164062 115.867188 C 25.488281 115.695312 26.644531 115.386719 28.710938 114.917969 C 30.628906 114.476562 32.503906 113.890625 33.25 113.496094 C 33.53125 113.351562 33.898438 113.234375 34.058594 113.234375 C 34.21875 113.234375 34.511719 113.144531 34.71875 113.042969 C 35.125 112.835938 36.503906 112.339844 37.5 112.0625 C 37.867188 111.957031 38.6875 111.621094 39.332031 111.328125 C 39.976562 111.019531 40.867188 110.667969 41.308594 110.523438 C 41.75 110.390625 43.109375 109.789062 44.3125 109.21875 C 45.527344 108.632812 46.683594 108.105469 46.890625 108.0625 C 47.09375 108.003906 47.78125 107.636719 48.398438 107.226562 C 49.027344 106.816406 49.847656 106.347656 50.214844 106.171875 C 50.816406 105.894531 52.296875 104.824219 53.4375 103.859375 L 53.789062 103.5625 L 52.925781 103.578125 C 52.457031 103.59375 51.578125 103.695312 50.976562 103.8125 Z M 50.976562 103.8125 "/>
<path style=" stroke:none;fill-rule:nonzero;fill:rgb(29.803922%,68.627451%,31.372549%);fill-opacity:1;" d="M 52.28125 110.082031 C 51.898438 110.1875 51.53125 110.304688 51.460938 110.347656 C 51.386719 110.390625 50.816406 110.566406 50.1875 110.742188 C 49.554688 110.902344 48.601562 111.253906 48.0625 111.503906 C 47.535156 111.753906 46.800781 112.046875 46.4375 112.148438 C 46.070312 112.25 45.320312 112.5 44.75 112.71875 C 44.195312 112.925781 43.492188 113.171875 43.210938 113.277344 C 42.933594 113.363281 42.671875 113.480469 42.625 113.554688 C 42.523438 113.671875 39.609375 114.695312 38.085938 115.136719 C 37.484375 115.3125 36.59375 115.632812 36.109375 115.867188 C 35.230469 116.28125 33.910156 116.734375 32.664062 117.039062 C 31.597656 117.304688 29.53125 117.949219 29.355469 118.082031 C 29.28125 118.15625 28.652344 118.34375 27.964844 118.507812 C 27.289062 118.679688 26.28125 118.945312 25.707031 119.09375 C 25.152344 119.253906 23.992188 119.546875 23.144531 119.765625 C 22.296875 119.984375 21.476562 120.21875 21.3125 120.277344 C 21.152344 120.351562 20.304688 120.542969 19.410156 120.703125 C 15.191406 121.4375 14.355469 121.566406 13.476562 121.65625 C 12.949219 121.699219 12.128906 121.816406 11.644531 121.90625 C 11.164062 121.992188 9.84375 122.109375 8.714844 122.183594 C 6.050781 122.34375 5.59375 122.402344 5.359375 122.59375 C 5.257812 122.679688 4.746094 122.796875 4.234375 122.84375 C 3.015625 122.960938 1.347656 123.867188 1.320312 124.410156 C 1.320312 124.46875 1.65625 124.847656 2.066406 125.242188 C 2.546875 125.726562 3.015625 126.019531 3.414062 126.136719 C 3.75 126.226562 4.320312 126.386719 4.671875 126.503906 C 5.023438 126.621094 5.699219 126.753906 6.167969 126.8125 C 6.648438 126.855469 7.074219 126.957031 7.117188 127.015625 C 7.222656 127.191406 13.988281 127.179688 14.328125 127.015625 C 14.546875 126.898438 15.570312 126.722656 17.871094 126.414062 C 18.3125 126.359375 19.46875 126.136719 20.433594 125.917969 C 21.402344 125.699219 22.660156 125.40625 23.21875 125.289062 C 23.789062 125.171875 24.523438 124.953125 24.859375 124.789062 C 25.195312 124.644531 25.5625 124.511719 25.664062 124.511719 C 25.984375 124.511719 28.402344 123.835938 29.515625 123.441406 C 30.085938 123.238281 30.734375 123.03125 30.980469 122.972656 C 31.214844 122.914062 31.757812 122.726562 32.167969 122.535156 C 32.578125 122.34375 33.207031 122.109375 33.546875 122.023438 C 33.882812 121.933594 34.277344 121.800781 34.410156 121.726562 C 34.539062 121.65625 35.257812 121.363281 36.019531 121.070312 C 36.78125 120.777344 37.648438 120.410156 37.925781 120.277344 C 38.21875 120.132812 38.65625 119.914062 38.890625 119.796875 C 39.140625 119.679688 39.59375 119.445312 39.917969 119.28125 C 40.238281 119.105469 41.820312 118.328125 43.433594 117.554688 C 45.042969 116.761719 46.464844 116.046875 46.582031 115.941406 C 46.699219 115.839844 47.402344 115.445312 48.121094 115.0625 C 48.851562 114.683594 50.125 113.890625 50.976562 113.289062 C 51.828125 112.703125 52.660156 112.148438 52.851562 112.0625 C 53.027344 111.988281 53.171875 111.855469 53.171875 111.765625 C 53.171875 111.679688 53.40625 111.414062 53.6875 111.167969 C 54.257812 110.65625 54.34375 110.242188 53.921875 110.007812 C 53.554688 109.820312 53.128906 109.835938 52.28125 110.082031 Z M 52.28125 110.082031 "/>
<path style=" stroke:none;fill-rule:nonzero;fill:rgb(29.803922%,68.627451%,31.372549%);fill-opacity:1;" d="M 61.671875 111.136719 C 61.332031 111.242188 60.746094 111.488281 60.425781 111.664062 C 60.265625 111.753906 59.238281 112.28125 58.15625 112.851562 C 57.070312 113.40625 55.78125 114.097656 55.296875 114.359375 C 54.8125 114.625 54.082031 115.003906 53.65625 115.195312 C 53.234375 115.398438 52.585938 115.796875 52.207031 116.074219 C 51.828125 116.367188 51.269531 116.675781 50.976562 116.75 C 50.375 116.910156 49.4375 117.390625 48.265625 118.140625 C 47.871094 118.390625 47.300781 118.695312 47.023438 118.796875 C 46.742188 118.902344 46.140625 119.195312 45.703125 119.429688 C 45.265625 119.679688 44.210938 120.21875 43.375 120.660156 C 42.554688 121.085938 41.6875 121.523438 41.46875 121.640625 C 41.101562 121.84375 39.84375 122.445312 38.085938 123.238281 C 37.648438 123.441406 36.882812 123.78125 36.402344 123.96875 C 35.917969 124.175781 34.890625 124.644531 34.132812 125.023438 C 33.367188 125.390625 32.285156 125.859375 31.726562 126.0625 C 31.1875 126.253906 30.425781 126.578125 30.042969 126.796875 C 29.445312 127.132812 28.59375 127.46875 25.707031 128.539062 C 25.226562 128.714844 24.390625 129.066406 23.847656 129.316406 C 23.304688 129.578125 22.777344 129.785156 22.660156 129.785156 C 22.558594 129.785156 22.414062 129.84375 22.324219 129.917969 C 22.25 129.992188 21.242188 130.355469 20.070312 130.738281 C 18.898438 131.117188 17.753906 131.515625 17.503906 131.617188 C 17.09375 131.792969 15.703125 132.15625 12.597656 132.875 C 11.910156 133.023438 10.898438 133.257812 10.34375 133.390625 C 9.785156 133.519531 9.125 133.753906 8.875 133.902344 C 8.628906 134.046875 8.261719 134.179688 8.054688 134.179688 C 7.867188 134.179688 7.265625 134.339844 6.738281 134.53125 C 6.210938 134.722656 5.199219 135.101562 4.46875 135.367188 C 2.710938 135.996094 2.140625 136.390625 1.949219 137.09375 C 1.875 137.375 1.949219 137.535156 2.257812 137.796875 C 2.476562 137.988281 2.8125 138.132812 3.003906 138.132812 C 3.195312 138.132812 3.398438 138.195312 3.441406 138.28125 C 3.558594 138.457031 6.152344 138.472656 6.152344 138.296875 C 6.152344 138.222656 6.5625 138.132812 7.074219 138.089844 C 10.738281 137.796875 17.664062 136.480469 18.851562 135.863281 C 19.070312 135.746094 19.351562 135.644531 19.46875 135.644531 C 19.585938 135.644531 19.878906 135.585938 20.125 135.5 C 20.375 135.425781 21.476562 135.117188 22.558594 134.824219 C 23.640625 134.53125 24.929688 134.105469 25.414062 133.886719 C 26.367188 133.433594 27.597656 132.976562 30.03125 132.1875 C 30.878906 131.910156 31.933594 131.5 32.375 131.265625 C 32.8125 131.03125 33.601562 130.679688 34.132812 130.472656 C 35.097656 130.09375 37.484375 128.921875 37.820312 128.65625 C 37.925781 128.585938 38.304688 128.394531 38.671875 128.246094 C 39.742188 127.808594 41.324219 127.015625 42.1875 126.476562 C 42.625 126.195312 43.285156 125.828125 43.652344 125.667969 C 44.019531 125.492188 44.5 125.199219 44.75 125.023438 C 44.984375 124.847656 45.734375 124.421875 46.40625 124.101562 C 47.066406 123.765625 47.753906 123.367188 47.929688 123.195312 C 48.105469 123.03125 48.382812 122.855469 48.546875 122.8125 C 48.707031 122.753906 49.085938 122.535156 49.410156 122.300781 C 49.730469 122.066406 50.070312 121.875 50.15625 121.875 C 50.316406 121.875 51.503906 121.097656 53.539062 119.707031 C 54.109375 119.3125 54.945312 118.785156 55.398438 118.519531 C 55.855469 118.273438 56.25 118.007812 56.28125 117.949219 C 56.335938 117.804688 57.101562 117.289062 57.671875 116.996094 C 57.933594 116.851562 58.316406 116.585938 58.535156 116.382812 C 58.753906 116.175781 59.179688 115.824219 59.457031 115.605469 C 60.484375 114.828125 62.636719 112.703125 62.960938 112.164062 C 63.398438 111.429688 63.222656 111.035156 62.429688 111.050781 C 62.140625 111.050781 61.789062 111.09375 61.671875 111.136719 Z M 61.671875 111.136719 "/>
</g>
</svg>
